HIERARCHY
ROOT root
{
	OFFSET 0.000000 0.000000 0.000000
	CHANNELS 6 Xposition Yposition Zposition Zrotation Yrotation Xrotation
	JOINT lhip
	{
		OFFSET 0.058581 -0.082280 -0.017664
		CHANNELS 3 Zrotation Yrotation Xrotation
		JOINT lknee
		{
			OFFSET 0.043451 -0.386469 0.008037
			CHANNELS 3 Zrotation Yrotation Xrotation
			JOINT lankle
			{
				OFFSET -0.014790 -0.426874 -0.037428
				CHANNELS 3 Zrotation Yrotation Xrotation
				JOINT ltoe
				{
					OFFSET 0.041054 -0.060286 0.122042
					CHANNELS 3 Zrotation Yrotation Xrotation
					End Site
					{
						OFFSET 0.000000 0.000000 0.000000
					}
				}
			}
		}
	}
	JOINT rhip
	{
		OFFSET -0.060310 -0.090513 -0.013543
		CHANNELS 3 Zrotation Yrotation Xrotation
		JOINT rknee
		{
			OFFSET -0.043257 -0.383688 -0.004843
			CHANNELS 3 Zrotation Yrotation Xrotation
			JOINT rankle
			{
				OFFSET 0.019056 -0.420046 -0.034562
				CHANNELS 3 Zrotation Yrotation Xrotation
				JOINT rtoe
				{
					OFFSET -0.034840 -0.062106 0.130323
					CHANNELS 3 Zrotation Yrotation Xrotation
					End Site
					{
						OFFSET 0.000000 0.000000 0.000000
					}
				}
			}
		}
	}
	JOINT lowerback
	{
		OFFSET 0.004439 0.124404 -0.038385
		CHANNELS 3 Zrotation Yrotation Xrotation
		JOINT upperback
		{
			OFFSET 0.004488 0.137956 0.026820
			CHANNELS 3 Zrotation Yrotation Xrotation
			JOINT chest
			{
				OFFSET -0.002265 0.056032 0.002855
				CHANNELS 3 Zrotation Yrotation Xrotation
				JOINT lowerneck
				{
					OFFSET -0.013390 0.211636 -0.033468
					CHANNELS 3 Zrotation Yrotation Xrotation
					JOINT upperneck
					{
						OFFSET 0.010113 0.088937 0.050410
						CHANNELS 3 Zrotation Yrotation Xrotation
						End Site
						{
							OFFSET 0.000000 0.000000 0.000000
						}
					}
				}
				JOINT lclavicle
				{
					OFFSET 0.071702 0.114000 -0.018898
					CHANNELS 3 Zrotation Yrotation Xrotation
					JOINT lshoulder
					{
						OFFSET 0.122921 0.045205 -0.019046
						CHANNELS 3 Zrotation Yrotation Xrotation
						JOINT lelbow
						{
							OFFSET 0.255332 -0.015649 -0.022946
							CHANNELS 3 Zrotation Yrotation Xrotation
							JOINT lwrist
							{
								OFFSET 0.265709 0.012698 -0.007375
								CHANNELS 3 Zrotation Yrotation Xrotation
								End Site
								{
									OFFSET 0.000000 0.000000 0.000000
								}
							}
						}
					}
				}
				JOINT rclavicle
				{
					OFFSET -0.082954 0.112472 -0.023707
					CHANNELS 3 Zrotation Yrotation Xrotation
					JOINT rshoulder
					{
						OFFSET -0.113228 0.046853 -0.008472
						CHANNELS 3 Zrotation Yrotation Xrotation
						JOINT relbow
						{
							OFFSET -0.260127 -0.014369 -0.031269
							CHANNELS 3 Zrotation Yrotation Xrotation
							JOINT rwrist
							{
								OFFSET -0.269108 0.006794 -0.006027
								CHANNELS 3 Zrotation Yrotation Xrotation
								End Site
								{
									OFFSET 0.000000 0.000000 0.000000
								}
							}
						}
					}
				}
			}
		}
	}
}
MOTION
Frames: 10
Frame Time: 0.033333
1.024827 2.976286 0.995766 -43.041372 0.276879 88.288724 1.030905 4.066156 6.764643 -4.396579 0.614907 -4.464076 1.918304 14.210262 -12.963969 0.000000 -0.000000 0.000000 2.102616 -2.353321 -0.860125 2.224844 -6.063531 11.467900 0.901477 -10.168397 -12.875178 0.000000 -0.000000 0.000000 1.990730 -0.894418 -1.661408 0.434525 -3.264426 10.868171 -0.889113 -3.059528 -3.199248 1.468448 9.293933 -5.596806 -0.068461 9.816137 4.012102 -27.606656 0.016722 0.166989 -60.656007 -6.411781 9.564017 12.267832 -18.371606 -5.420140 -6.584412 -8.315480 -1.495114 25.749112 3.545012 2.881581 55.826633 4.352479 13.648515 -8.447813 22.121690 -3.827108 6.046065 8.648202 -4.697661 
1.025134 2.976136 0.995581 -43.089982 0.199707 88.122808 0.961933 4.074263 6.955413 -4.401344 0.639982 -4.522853 1.974130 14.148916 -12.943642 0.000000 -0.000000 0.000000 1.976905 -2.418456 -0.710020 2.255285 -6.007782 11.481115 1.092585 -10.160116 -12.998297 0.000000 -0.000000 0.000000 2.193512 -0.910203 -2.020484 0.220015 -3.445975 11.626141 -1.084164 -2.914211 -3.042942 1.655231 10.125836 -5.514829 -0.960245 10.768279 3.199308 -27.322517 0.328919 0.309569 -60.858741 -6.029393 8.916531 12.308019 -18.203505 -5.753360 -7.355506 -8.278786 -1.112119 25.785289 3.761847 3.102119 56.001003 4.713811 13.333755 -8.814420 21.603822 -4.023704 6.776807 8.458729 -3.513377 
1.025392 2.975818 0.995699 -43.098779 0.173546 88.107472 0.907880 4.063675 6.996418 -4.382110 0.565095 -4.595018 1.968624 14.202817 -12.908691 0.000000 -0.000000 0.000000 1.934199 -2.436812 -0.734946 2.253790 -6.002155 11.488693 1.180469 -10.228227 -13.116053 0.000000 -0.000000 0.000000 2.240541 -0.876933 -1.995788 0.207336 -3.345154 11.498427 -1.065499 -2.899376 -2.830179 1.766279 10.817915 -5.717538 -1.266989 11.499959 3.243114 -27.332661 0.889696 0.287343 -60.930779 -5.430824 8.703400 12.255156 -18.258392 -5.617110 -7.433112 -8.317452 -1.230006 25.873360 3.514201 3.010568 55.820133 4.697270 13.292476 -8.879855 21.255077 -3.889982 7.108178 8.386743 -3.006072 
1.025462 2.975568 0.995723 -42.996127 0.149295 88.080343 0.869139 4.033577 7.050505 -4.371691 0.440980 -4.646520 1.962779 14.256178 -12.892138 0.000000 -0.000000 0.000000 1.903903 -2.473166 -0.732627 2.235682 -6.012362 11.553232 1.248349 -10.278794 -13.181459 0.000000 -0.000000 0.000000 2.294340 -0.819010 -1.889698 0.172033 -3.179618 11.203186 -1.004006 -2.872429 -2.639197 1.696539 11.618520 -5.588739 -1.634935 12.570689 3.278730 -27.338709 1.478162 0.349601 -60.953422 -4.786834 8.518840 12.253893 -18.469255 -5.578715 -7.240992 -8.373832 -1.694361 25.858497 3.229371 2.993572 55.698950 4.671905 13.277704 -8.769232 20.912770 -3.914439 7.143561 8.343242 -3.007919 
1.025515 2.975397 0.995740 -42.892375 0.129505 88.018935 0.854351 4.025719 7.114689 -4.368835 0.382894 -4.673649 1.965419 14.214080 -12.891876 0.000000 -0.000000 0.000000 1.871390 -2.554277 -0.678332 2.220143 -6.063591 11.575278 1.255608 -10.232741 -13.237158 0.000000 -0.000000 0.000000 2.335891 -0.763223 -1.824030 0.145989 -3.112732 11.106328 -0.965983 -2.859519 -2.648011 1.580092 12.133385 -5.236130 -1.953289 13.311671 3.319312 -27.362053 1.773341 0.424011 -60.892463 -4.503924 8.331552 12.180598 -18.603216 -5.535318 -7.113455 -8.441929 -1.915432 25.810150 3.095680 3.093358 55.649907 4.714169 13.199228 -8.712662 20.720714 -3.944992 7.159722 8.364724 -2.943901 
1.025594 2.975110 0.995842 -42.680611 0.064636 88.042986 0.811377 3.873208 7.013595 -4.376031 -0.042469 -4.578999 1.969385 14.380557 -12.814733 0.000000 -0.000000 0.000000 1.803851 -2.589424 -0.684880 2.219045 -6.116786 11.531269 1.256304 -10.309728 -13.252552 0.000000 -0.000000 0.000000 2.338466 -0.659748 -1.938692 0.135078 -3.052974 11.075821 -0.957404 -2.830388 -2.598119 1.587687 12.633766 -5.071290 -2.132249 13.981090 3.427922 -27.314779 2.086561 0.376914 -60.870427 -4.267328 8.249364 12.121096 -18.644445 -5.508299 -7.083648 -8.495842 -2.042387 25.761666 2.958847 3.100674 55.603992 4.720762 13.164719 -8.689879 20.595049 -3.962314 7.080940 8.392288 -2.944152 
1.025674 2.974887 0.995931 -42.424515 -0.011847 88.102573 0.770878 3.705013 6.851006 -4.396979 -0.712813 -4.450059 1.982317 14.688458 -12.691138 0.000000 -0.000000 0.000000 1.727492 -2.601935 -0.757164 2.211741 -6.220406 11.517894 1.225309 -10.386905 -13.272914 0.000000 -0.000000 0.000000 2.330314 -0.561710 -2.079519 0.112267 -3.004441 11.056554 -0.945062 -2.804138 -2.590493 1.539699 13.033430 -4.871236 -2.265082 14.669125 3.527507 -27.252845 2.281537 0.429804 -60.887582 -4.103067 8.262114 12.211776 -18.872477 -5.609649 -6.817653 -8.486071 -2.235905 25.662227 2.918981 3.167949 55.624374 4.758032 13.174986 -8.616517 20.603026 -4.108117 6.758148 8.440093 -3.317512 
1.025628 2.974794 0.995976 -42.156701 -0.059263 88.041962 0.741434 3.649512 6.884343 -4.402818 -0.875325 -4.429532 1.965233 14.642547 -12.701440 0.000000 -0.000000 0.000000 1.687963 -2.658025 -0.677556 2.192925 -6.313894 11.507697 1.223521 -10.449143 -13.328580 0.000000 -0.000000 0.000000 2.374829 -0.496675 -2.030213 0.046062 -2.891993 10.901655 -0.925212 -2.792034 -2.500351 1.575206 13.391934 -4.758490 -2.434055 15.203818 3.750576 -27.188985 2.365061 0.472303 -60.788048 -4.052381 8.250713 12.146657 -19.125540 -5.426698 -6.464362 -8.515132 -2.473572 25.557528 2.894003 3.199933 55.653827 4.840970 13.209114 -8.511176 20.670879 -4.281770 6.295038 8.484053 -3.834238 
1.025551 2.974840 0.995976 -41.864513 -0.109609 88.005592 0.714223 3.582417 6.868372 -4.410917 -0.976507 -4.374312 1.944316 14.553480 -12.696960 0.000000 -0.000000 0.000000 1.652440 -2.728852 -0.625798 2.168549 -6.416680 11.519984 1.244487 -10.509135 -13.367708 0.000000 -0.000000 0.000000 2.423826 -0.433985 -1.998827 -0.011669 -2.805949 10.757993 -0.935605 -2.774501 -2.438715 1.558780 13.745162 -4.638560 -2.590737 15.642600 4.014336 -27.113915 2.423063 0.487359 -60.661387 -4.060778 8.229602 12.085845 -19.477673 -5.302830 -6.177872 -8.473563 -2.643373 25.499911 2.892687 3.210904 55.605062 4.969873 13.256820 -8.485521 20.818943 -4.298281 6.144064 8.500599 -3.949394 
1.025384 2.974927 0.996027 -41.504617 -0.175652 87.945865 0.681608 3.469745 6.884826 -4.421024 -1.106149 -4.330655 1.921763 14.457254 -12.695654 0.000000 -0.000000 0.000000 1.602476 -2.824318 -0.527453 2.153551 -6.530929 11.499026 1.236278 -10.601464 -13.411537 0.000000 -0.000000 0.000000 2.493811 -0.380095 -1.966852 -0.082606 -2.697917 10.562549 -0.990559 -2.719398 -2.346332 1.615863 14.006702 -4.556892 -2.716839 15.994797 4.451944 -27.134627 2.649048 0.458127 -60.325519 -4.233574 8.253565 11.896358 -20.208847 -4.848311 -5.921768 -8.448684 -2.875945 25.501766 2.833255 3.136014 55.495319 5.201609 13.378711 -8.448926 21.066027 -4.288748 5.960035 8.507774 -4.141529 
